<svg id="Camada_1" data-name="Camada 1" xmlns="http://www.w3.org/2000/svg" xmlns:xlink="http://www.w3.org/1999/xlink" viewBox="0 0 247.79 96.03"><defs><style>.cls-1{fill:url(#Gradiente_sem_nome_4);}.cls-2{fill:url(#Gradiente_sem_nome_4-2);}.cls-3{fill:#00347a;}.cls-4{fill:url(#Gradiente_sem_nome_16);}.cls-5{fill:url(#Gradiente_sem_nome_16-2);}.cls-6{fill:url(#Gradiente_sem_nome_4-3);}.cls-7{fill:url(#Gradiente_sem_nome_4-4);}.cls-8{fill:url(#Gradiente_sem_nome_4-5);}</style><linearGradient id="Gradiente_sem_nome_4" x1="36.62" y1="95.83" x2="36.62" y2="0.23" gradientUnits="userSpaceOnUse"><stop offset="0" stop-color="#003582"/><stop offset="1" stop-color="#0071b5"/></linearGradient><linearGradient id="Gradiente_sem_nome_4-2" x1="114.16" y1="94.69" x2="114.16" y2="2.14" xlink:href="#Gradiente_sem_nome_4"/><linearGradient id="Gradiente_sem_nome_16" x1="231.9" y1="82.63" x2="231.9" y2="21.49" gradientUnits="userSpaceOnUse"><stop offset="0" stop-color="#146aa5"/><stop offset="1" stop-color="#729eca"/></linearGradient><linearGradient id="Gradiente_sem_nome_16-2" x1="220.12" y1="34.4" x2="220.12" y2="0.22" xlink:href="#Gradiente_sem_nome_16"/><linearGradient id="Gradiente_sem_nome_4-3" x1="190.57" y1="96.03" x2="190.57" y2="0" xlink:href="#Gradiente_sem_nome_4"/><linearGradient id="Gradiente_sem_nome_4-4" x1="230" y1="84.63" x2="230" y2="84.55" xlink:href="#Gradiente_sem_nome_4"/><linearGradient id="Gradiente_sem_nome_4-5" x1="194.61" y1="23.8" x2="194.61" y2="23.75" xlink:href="#Gradiente_sem_nome_4"/></defs><title>MARCA SPO</title><path class="cls-1" d="M64.26,45.38a42.13,42.13,0,0,0-9.7-5.71c-3.61-1.54-7.59-3-11.85-4.44q-3.24-1.06-5.69-2a20.57,20.57,0,0,1-3.8-1.79,6.43,6.43,0,0,1-1.92-1.7A3,3,0,0,1,30.82,28a3,3,0,0,1,.44-1.73A3.82,3.82,0,0,1,32.65,25a8.46,8.46,0,0,1,2.46-.83,13.91,13.91,0,0,1,6.52.18,19.39,19.39,0,0,1,3.19,1.3,21,21,0,0,1,2.87,1.78c.94.68,1.79,1.35,2.52,2l.56.5q.93.8,1.68,1.32c1.79,1.25,4.16,1.18,6.15-.81l9.15-9.73a10.62,10.62,0,0,0,1.42-1.83,4.76,4.76,0,0,0,.67-2.44,5.08,5.08,0,0,0-1.21-3,16.64,16.64,0,0,0-2.47-2.58c-1-.83-2.08-1.7-3.35-2.6s-2.6-1.74-4-2.59a42.23,42.23,0,0,0-10.32-4.1A45.82,45.82,0,0,0,37.55.23,47.31,47.31,0,0,0,23.89,2.08a32.56,32.56,0,0,0-10.66,5.3,24.3,24.3,0,0,0-7,8.44,24.55,24.55,0,0,0-2.45,11A26.41,26.41,0,0,0,5.77,37.05a26.14,26.14,0,0,0,5.82,8.45A40.75,40.75,0,0,0,21,52.27a90.1,90.1,0,0,0,12.86,5.54c1.06.35,2.32.79,3.77,1.32a26.69,26.69,0,0,1,4,1.8,12.91,12.91,0,0,1,3,2.24,3.56,3.56,0,0,1,.83,2.32A5.56,5.56,0,0,1,45,67.62a4.41,4.41,0,0,1-1.18,1.81,6.79,6.79,0,0,1-2.52,1.38,14.72,14.72,0,0,1-4.48.58,15.79,15.79,0,0,1-5.57-1,28.72,28.72,0,0,1-5.62-3,33.7,33.7,0,0,1-3.41-2.62c-1.07-.94-1.95-1.7-2.64-2.27A13.07,13.07,0,0,0,17.9,61.3c-1.66-1-3.24-.89-5.35.62L2,71.91a5.15,5.15,0,0,0-2,3.74C0,76.79.6,78,1.92,79.42l0,0,.24.24.06.06.31.32c.65.68,1.52,1.59,2.63,2.72a34.3,34.3,0,0,0,4.29,3.63,54.08,54.08,0,0,0,12.85,6.83,40.84,40.84,0,0,0,14.19,2.58,46,46,0,0,0,14.24-2.16,36.63,36.63,0,0,0,11.66-6.15,29.31,29.31,0,0,0,7.91-9.76A28.07,28.07,0,0,0,73.24,65a25.4,25.4,0,0,0-2.39-11.45A24.65,24.65,0,0,0,64.26,45.38Z"/><path class="cls-2" d="M146.64,18.23a32.91,32.91,0,0,0-4.42-6.38,29.62,29.62,0,0,0-5.9-5.12,29.07,29.07,0,0,0-7.19-3.37,28.5,28.5,0,0,0-8.36-1.22H82.58a4.42,4.42,0,0,0-3.46,1.42A4.84,4.84,0,0,0,78,6.87V90.14a4.31,4.31,0,0,0,1.4,3.43,4.75,4.75,0,0,0,3.22,1.12h17.75c2.92,0,4.74-1.74,4.74-4.55V63.74h16.14a27.56,27.56,0,0,0,12-2.74,30.39,30.39,0,0,0,9.21-6.93,31.18,31.18,0,0,0,5.91-9.75,31.64,31.64,0,0,0,2.07-11.2,31.06,31.06,0,0,0-1-7.67A32.07,32.07,0,0,0,146.64,18.23ZM123,33a9,9,0,0,1-.52,3A7.66,7.66,0,0,1,121,38.57a7.14,7.14,0,0,1-2.27,1.75,6.54,6.54,0,0,1-3,.65H105.07V25h10.68a6.08,6.08,0,0,1,2.92.66A7.46,7.46,0,0,1,121,27.52a7.72,7.72,0,0,1,1.46,2.56A8.61,8.61,0,0,1,123,33Z"/><path class="cls-3" d="M230.19,84.6l0,0C230.31,84.49,230.24,84.55,230.19,84.6Z"/><path class="cls-4" d="M244,29a48.46,48.46,0,0,0-3.72-6.9,1.37,1.37,0,0,0-.18-.24,1.31,1.31,0,0,0-1.72-.13l-19,16h0l-.14.12a1.29,1.29,0,0,0-.36,1.21h0a28.95,28.95,0,0,1,0,17.91,22.12,22.12,0,0,1-2.6,5.27,1.41,1.41,0,0,0,0,1.55l15.48,18.46a1.31,1.31,0,0,0,1.85,0l0,0,.17-.15a47.55,47.55,0,0,0,7.46-9.7,49,49,0,0,0,4.83-11.52,48.23,48.23,0,0,0,1.72-12.91A47.35,47.35,0,0,0,244,29Z"/><path class="cls-5" d="M236.6,17h0c-.9-1.1-1.83-2.17-2.84-3.18A47.27,47.27,0,0,0,218.56,3.64,46.33,46.33,0,0,0,204.68.22a1.28,1.28,0,0,0-1.36,1.28V23.91a1.3,1.3,0,0,0,.37.88,1.44,1.44,0,0,0,.61.37l.12,0a16.16,16.16,0,0,1,3.82,1.26,19.4,19.4,0,0,1,6.52,5.09,20.7,20.7,0,0,1,1.58,2.22,2.65,2.65,0,0,0,.21.26,1.3,1.3,0,0,0,1.85,0s.14-.11.15-.13L236.26,19l.29-.25A1.29,1.29,0,0,0,236.6,17Z"/><path class="cls-6" d="M229,84.44h0v0h0L214.34,66.94l-.25-.29a1.3,1.3,0,0,0-1.69-.12,19.44,19.44,0,0,1-4.1,2.61,20,20,0,0,1-8.49,1.79h-.11a20.86,20.86,0,0,1-8.81-1.8,19.84,19.84,0,0,1-6.66-4.86c-.26-.3-.5-.62-.75-.93A22,22,0,0,1,180,57a27.63,27.63,0,0,1,0-18,23.29,23.29,0,0,1,4.24-7.46c.07-.09.15-.16.22-.24a19.36,19.36,0,0,1,14-6.65h.21v0a1.19,1.19,0,0,0,.75-.35,1.26,1.26,0,0,0,.36-1V2.51s0-.61,0-1.18a1.26,1.26,0,0,0-.38-.95,1.31,1.31,0,0,0-.94-.38c-.38,0-.79,0-1.13,0A45.91,45.91,0,0,0,187,1.66a48.42,48.42,0,0,0-11.52,4.75A46.08,46.08,0,0,0,168,11.75c-.76.67-1.5,1.37-2.22,2.09a48.76,48.76,0,0,0-12.29,47,48.59,48.59,0,0,0,4.82,11.52,48,48,0,0,0,5.42,7.51c.66.75,1.34,1.47,2.05,2.18a47.21,47.21,0,0,0,9.69,7.46A47.73,47.73,0,0,0,187,94.35,49.1,49.1,0,0,0,199.81,96h.11a47.66,47.66,0,0,0,24.22-6.48,46.59,46.59,0,0,0,4.75-3.22l.09-.08A1.29,1.29,0,0,0,229,84.44Z"/><path class="cls-7" d="M230,84.6l0,0C230.1,84.5,230,84.56,230,84.6Z"/><path class="cls-8" d="M194.65,23.8l-.08-.05Z"/></svg>